<?xml version="1.0" encoding="UTF-8"?>
<svg version="1.1" xmlns="http://www.w3.org/2000/svg" width="512" height="512">
<path d="M0 0 C2.25751277 0.01077689 4.51423885 0.0000133 6.77172852 -0.01269531 C22.87731531 -0.02963399 34.1662811 3.03057814 46.03149414 14.37011719 C47.92187341 16.30781932 47.92187341 16.30781932 50.06274414 17.26074219 C51.47588299 16.83531302 52.86927785 16.34370687 54.25024414 15.82324219 C65.53747143 12.31021467 77.327935 13.53630796 88.06274414 18.26074219 C99.69682255 24.6396545 107.86057529 34.29984595 111.59028625 47.0664978 C113.27331812 53.77405688 113.32564405 60.25638861 113.30102539 67.14355469 C113.31643443 69.63444562 113.33273727 72.12533115 113.34985352 74.61621094 C113.36633958 78.5113524 113.37520734 82.40609582 113.36816406 86.30126953 C113.36554516 90.08248286 113.39364222 93.86250114 113.42602539 97.64355469 C113.41581863 98.80412384 113.40561188 99.96469299 113.39509583 101.16043091 C113.48127797 108.2939692 114.34087333 111.87635238 119.06274414 117.26074219 C123.25689 127.55286121 122.96899695 136.95175922 119.06274414 147.26074219 C114.62750394 155.83553991 108.39830026 161.81086025 99.48461914 165.51464844 C95.41019967 166.7698325 91.30602724 167.08356962 87.06274414 167.26074219 C87.00086914 168.45699219 86.93899414 169.65324219 86.87524414 170.88574219 C84.70293447 189.81161819 72.90905437 204.67858778 58.98461914 216.78808594 C57.06274414 218.26074219 57.06274414 218.26074219 54.37915039 219.56542969 C51.77159907 221.09131342 51.77159907 221.09131342 51.35571289 224.17871094 C51.3209082 225.25765625 51.28610352 226.33660156 51.25024414 227.44824219 C51.20254883 228.53492188 51.15485352 229.62160156 51.10571289 230.74121094 C51.0915332 231.57265625 51.07735352 232.40410156 51.06274414 233.26074219 C51.92899414 233.17824219 52.79524414 233.09574219 53.68774414 233.01074219 C60.40818474 233.5085526 64.83998613 238.69724471 69.37524414 243.26074219 C70.18058594 244.04191406 70.18058594 244.04191406 71.00219727 244.83886719 C73.74068771 247.5739043 75.34701713 249.46254958 76.06274414 253.26074219 C76.7755957 253.45410156 77.48844727 253.64746094 78.22290039 253.84667969 C79.18067383 254.10707031 80.13844727 254.36746094 81.12524414 254.63574219 C82.12942383 254.90644531 83.13360352 255.17714844 84.16821289 255.45605469 C86.44840459 256.08995414 88.68743436 256.78226053 90.93774414 257.51074219 C95.20101531 258.53392727 97.7502727 258.06210696 101.50024414 255.77246094 C102.34586914 255.17046875 103.19149414 254.56847656 104.06274414 253.94824219 C116.81904896 245.70414093 131.02381204 244.30109983 145.78149414 246.92089844 C159.50761676 250.69558216 170.47169313 259.0643991 177.87524414 271.13574219 C185.04919577 284.17631941 186.59219098 297.77603215 183.06274414 312.26074219 C179.73404887 322.53464751 179.73404887 322.53464751 176.6151886 325.75575256 C171.09721863 331.65074582 171.2622343 337.84669598 171.39599419 345.51651382 C171.43452633 347.74588608 171.43586071 349.97269816 171.42823792 352.20236206 C171.41895814 356.93056406 171.45773631 361.65776717 171.50024414 366.38574219 C171.54506723 371.87559585 171.56988475 377.36457554 171.55568123 382.85461044 C171.55878437 385.04330492 171.59243207 387.23011116 171.62779236 389.41848755 C171.69254123 400.37946625 171.69254123 400.37946625 168.74267578 404.13916016 C165.31694057 406.85116152 163.43260946 407.4114272 159.06274414 407.26074219 C153.3698619 404.43851138 148.7199062 400.71162689 143.87524414 396.63574219 C142.48885631 395.47337825 141.09962641 394.31439386 139.70727539 393.15917969 C139.10246338 392.6504834 138.49765137 392.14178711 137.87451172 391.61767578 C136.01838 390.22751541 134.16408647 389.23166134 132.06274414 388.26074219 C131.61471436 388.6283667 131.16668457 388.99599121 130.70507812 389.37475586 C128.63864468 391.06818304 126.56946707 392.75822487 124.50024414 394.44824219 C123.79577148 395.02638672 123.09129883 395.60453125 122.36547852 396.20019531 C108.80537302 407.26074219 108.80537302 407.26074219 102.06274414 407.26074219 C98.14469641 405.60645537 96.79039923 404.03656756 95.06274414 400.26074219 C93.95083678 400.26258577 92.83892942 400.26442936 91.6933279 400.26632881 C64.64408308 400.3107186 37.59484297 400.34358931 10.54556942 400.36436653 C-2.535226 400.37468118 -15.61599736 400.38874515 -28.69677734 400.41162109 C-40.09734677 400.43154915 -51.49789877 400.44445726 -62.89848512 400.44891918 C-68.93555542 400.45152753 -74.97257587 400.45766232 -81.0096302 400.4722023 C-86.69190165 400.48577693 -92.37410273 400.48996504 -98.05638885 400.48695755 C-100.14171417 400.48750776 -102.22704184 400.49148588 -104.31235313 400.49915314 C-107.16076013 400.50911242 -110.00890185 400.50670739 -112.85731506 400.50125122 C-114.0932339 400.50998975 -114.0932339 400.50998975 -115.35412079 400.51890481 C-121.54216674 400.4868961 -126.90297126 400.02378884 -131.74975586 395.82324219 C-134.67612415 392.39521076 -136.19008855 390.42486533 -136.19628906 385.93945312 C-136.19936569 385.04623352 -136.20244232 384.15301392 -136.20561218 383.23272705 C-136.19568741 382.2468158 -136.18576263 381.26090454 -136.17553711 380.24511719 C-136.166632 378.67271271 -136.166632 378.67271271 -136.157547 377.06854248 C-136.00353694 363.38042933 -135.2093233 349.71822406 -134.39306641 336.05664062 C-134.16534785 332.23878226 -133.95472153 328.42018279 -133.74825573 324.60112381 C-133.58378983 321.60463305 -133.40866544 318.60883251 -133.23061562 315.61312103 C-133.14848547 314.20537635 -133.06988984 312.79741996 -132.99522972 311.38925934 C-132.28423316 298.1386262 -131.18497001 285.047404 -121.05053711 275.47949219 C-113.59067938 269.49988128 -104.56507637 267.51353689 -95.46459961 265.19433594 C-93.84177818 264.77499535 -93.84177818 264.77499535 -92.18617249 264.34718323 C-88.75007518 263.46010105 -85.31249129 262.57895244 -81.87475586 261.69824219 C-78.43377081 260.81275657 -74.99310563 259.92604277 -71.55262756 259.03858948 C-69.41825519 258.48846398 -67.28353624 257.93968084 -65.14842224 257.3924408 C-63.2445307 256.90325594 -61.3419783 256.40881431 -59.44113159 255.90792847 C-57.88334973 255.50528267 -56.31978633 255.12365591 -54.74905396 254.77493286 C-51.13532056 253.97996313 -51.13532056 253.97996313 -48.71264648 251.36303711 C-48.45676758 250.66927979 -48.20088867 249.97552246 -47.93725586 249.26074219 C-46.36499023 247.44555664 -46.36499023 247.44555664 -44.53100586 245.62402344 C-43.53907227 244.63499023 -43.53907227 244.63499023 -42.52709961 243.62597656 C-41.83745117 242.94857422 -41.14780273 242.27117187 -40.43725586 241.57324219 C-39.74760742 240.88423828 -39.05795898 240.19523438 -38.34741211 239.48535156 C-32.0677177 233.26074219 -32.0677177 233.26074219 -24.93725586 233.26074219 C-24.60725586 229.30074219 -24.27725586 225.34074219 -23.93725586 221.26074219 C-25.58725586 220.60074219 -27.23725586 219.94074219 -28.93725586 219.26074219 C-45.98423553 207.20809438 -56.13393571 191.35155241 -60.93725586 171.26074219 C-60.93725586 169.94074219 -60.93725586 168.62074219 -60.93725586 167.26074219 C-62.23663086 167.17824219 -63.53600586 167.09574219 -64.87475586 167.01074219 C-73.21343562 166.05662993 -80.96438134 162.17074435 -86.93725586 156.26074219 C-94.27046708 146.2771686 -96.17400766 136.39636925 -94.93725586 124.26074219 C-93.95453318 119.94457953 -92.69799334 116.0170326 -89.50543213 112.83253479 C-85.55001158 108.84260932 -84.25474359 106.0559813 -84.20761108 100.44885254 C-84.22925323 99.61333862 -84.25089539 98.77782471 -84.27319336 97.91699219 C-84.26897369 97.03023804 -84.26475403 96.14348389 -84.26040649 95.2298584 C-84.24959395 92.40595695 -84.27744337 89.5844219 -84.31225586 86.76074219 C-84.4512737 70.76812997 -83.88748795 56.49670565 -76.24975586 42.01074219 C-75.90871826 41.34945312 -75.56768066 40.68816406 -75.21630859 40.00683594 C-65.39725122 21.64762724 -49.39838575 10.68797938 -30.46069336 3.26855469 C-20.35297169 0.37743252 -10.43112183 -0.05922244 0 0 Z " fill="#030202" transform="translate(135.937255859375,55.7392578125)"/>
<path d="M0 0 C3.25316671 2.0713769 5.81143 4.76478667 8.49072266 7.50805664 C9.37405777 8.39919411 9.37405777 8.39919411 10.27523804 9.30833435 C12.15136824 11.20224313 14.02066121 13.1027147 15.88916016 15.00415039 C17.7656648 16.90826481 19.64360592 18.81090478 21.52450562 20.7106781 C22.69363739 21.89207588 23.86008574 23.0761364 25.02359009 24.26307678 C28.40634069 27.68770894 30.45386592 29.60280059 35.26416016 30.06665039 C41.04967143 30.0108416 43.9360815 26.86098883 47.91259766 22.97680664 C50.61129205 20.06741684 53.13636881 17.06416871 55.49853516 13.87524414 C57.26416016 12.44165039 57.26416016 12.44165039 59.95166016 11.69555664 C66.07810702 13.0754521 69.65801943 18.79153526 73.63525391 23.39868164 C77.59723574 27.78008641 77.59723574 27.78008641 82.88354492 30.08935547 C86.66795503 30.21869827 89.38971482 29.89734725 92.76025391 28.14086914 C93.40091797 27.47700195 94.04158203 26.81313477 94.70166016 26.12915039 C95.50345703 25.32735352 96.30525391 24.52555664 97.13134766 23.69946289 C97.59895508 23.20994141 98.0665625 22.72041992 98.54833984 22.21606445 C100.69058114 20.0006675 102.88685957 17.84430346 105.08447266 15.68383789 C108.52144107 12.29256272 111.95342349 8.89682413 115.36181641 5.47680664 C116.08892822 4.74856689 116.81604004 4.02032715 117.56518555 3.27001953 C119.33181339 1.54070875 119.33181339 1.54070875 120.26416016 -0.55834961 C120.90482422 -0.36499023 121.54548828 -0.17163086 122.20556641 0.02758789 C123.07052734 0.28797852 123.93548828 0.54836914 124.82666016 0.81665039 C125.67357422 1.07188477 126.52048828 1.32711914 127.39306641 1.59008789 C130.67688801 2.56406491 133.96952397 3.50498003 137.26416016 4.44165039 C136.77044922 5.62243164 136.27673828 6.80321289 135.76806641 8.01977539 C135.12078384 9.5770059 134.47365655 11.13430096 133.82666016 12.69165039 C133.50117188 13.46895508 133.17568359 14.24625977 132.84033203 15.04711914 C132.37143555 16.17827148 132.37143555 16.17827148 131.89306641 17.33227539 C131.6050415 18.02353516 131.3170166 18.71479492 131.02026367 19.42700195 C127.18480458 29.64663658 128.50670801 42.39995772 132.26416016 52.44165039 C135.01631459 58.31681696 137.65235455 63.82984478 142.26416016 68.44165039 C142.26416016 87.25165039 142.26416016 106.06165039 142.26416016 125.44165039 C85.17416016 125.44165039 28.08416016 125.44165039 -30.73583984 125.44165039 C-31.06583984 102.34165039 -31.39583984 79.24165039 -31.73583984 55.44165039 C-32.78894261 54.17161716 -32.78894261 54.17161716 -35.17333984 54.25415039 C-37.9031866 54.17325056 -37.9031866 54.17325056 -39.73583984 56.44165039 C-39.98075511 58.87242499 -40.10925285 61.2011644 -40.14990234 63.63696289 C-40.1855127 64.93134277 -40.22112305 66.22572266 -40.2578125 67.55932617 C-40.29181152 69.21174316 -40.32581055 70.86416016 -40.36083984 72.56665039 C-40.48458984 77.80540039 -40.60833984 83.04415039 -40.73583984 88.44165039 C-52.61583984 88.44165039 -64.49583984 88.44165039 -76.73583984 88.44165039 C-76.40790276 79.77474176 -76.07540116 71.10810127 -75.73583984 62.44165039 C-75.67178955 60.78649414 -75.67178955 60.78649414 -75.60644531 59.09790039 C-75.48640356 56.02483154 -75.36182766 52.95198054 -75.23583984 49.87915039 C-75.20047119 48.95996826 -75.16510254 48.04078613 -75.12866211 47.09375 C-74.43403722 30.55802972 -74.43403722 30.55802972 -71.17333984 25.19165039 C-70.71830078 24.40274414 -70.26326172 23.61383789 -69.79443359 22.80102539 C-63.55778259 15.65313695 -55.30211432 13.97512554 -46.36083984 11.94165039 C-43.8552079 11.34446664 -41.34999856 10.74550694 -38.84521484 10.14477539 C-37.63027344 9.85666992 -36.41533203 9.56856445 -35.16357422 9.27172852 C-30.61879724 8.1711415 -26.11098899 6.96114963 -21.61083984 5.69165039 C-20.542771 5.39049316 -20.542771 5.39049316 -19.453125 5.08325195 C-0.7352792 -0.23650964 -0.7352792 -0.23650964 0 0 Z " fill="#6FD5F8" transform="translate(88.73583984375,319.558349609375)"/>
<path d="M0 0 C0.64324219 0.43570313 1.28648437 0.87140625 1.94921875 1.3203125 C14.98929373 9.9144846 27.83098894 15.46105185 43.33203125 17.078125 C44.16657837 17.16787598 45.00112549 17.25762695 45.86096191 17.35009766 C47.90699077 17.56970719 49.95345421 17.78526122 52 18 C52.09344304 26.72007873 52.16413614 35.43998026 52.20724869 44.1604538 C52.2279599 48.21148089 52.25596827 52.26216087 52.30175781 56.31298828 C52.34581371 60.23582781 52.36926019 64.15833746 52.37950897 68.08140564 C52.38679496 69.5642566 52.40101572 71.04709334 52.42292023 72.52980042 C52.69597805 91.81262484 47.93871124 109.19650776 35 124 C34.49082031 124.60328125 33.98164063 125.2065625 33.45703125 125.828125 C22.81508951 137.49484632 6.45322145 144.03842214 -9.0859375 145.23828125 C-28.23734541 145.67043891 -45.03197596 139.25668949 -59 126 C-72.90016679 111.53697434 -77.52474963 94.4505968 -77.29296875 74.828125 C-77.28735714 73.41038467 -77.28309447 71.99263842 -77.28010559 70.57489014 C-77.26877963 66.88577543 -77.23942207 63.19702841 -77.20599365 59.50805664 C-77.17502468 55.72677582 -77.1615436 51.94543422 -77.14648438 48.1640625 C-77.11453721 40.77587602 -77.06349429 33.38798998 -77 26 C-76.19761902 26.00523682 -75.39523804 26.01047363 -74.56854248 26.01586914 C-70.89466145 26.03679652 -67.22079301 26.04971003 -63.546875 26.0625 C-61.65364502 26.07506836 -61.65364502 26.07506836 -59.72216797 26.08789062 C-40.4805057 26.13809718 -23.83795178 21.67182743 -9 9 C-8.43925781 8.55785156 -7.87851563 8.11570313 -7.30078125 7.66015625 C-4.39320549 5.34395183 -2.16190545 3.00511197 0 0 Z " fill="#F7CEB2" transform="translate(162,132)"/>
<path d="M0 0 C2.60919078 0.00855392 5.21621694 -0.02041804 7.82519531 -0.05200195 C19.30541387 -0.10243001 28.64231622 0.53129827 37.35644531 8.88354492 C38.14792969 9.62475586 38.93941406 10.3659668 39.75488281 11.12963867 C41.99591335 13.46109676 44.00537216 15.88797762 45.98144531 18.44604492 C49.39685458 18.0295316 52.0017383 17.43630227 55.12207031 15.93823242 C62.97519596 12.50449806 73.51662158 13.17587955 81.60644531 15.47729492 C91.53034576 20.03418799 97.72494096 27.57095483 101.98144531 37.44604492 C102.96610784 40.40003251 103.10272367 42.29853514 103.0949707 45.37646484 C103.09489517 46.37727585 103.09481964 47.37808685 103.09474182 48.40922546 C103.08958054 49.48743057 103.08441925 50.56563568 103.07910156 51.67651367 C103.07697914 53.33484978 103.07697914 53.33484978 103.07481384 55.02668762 C103.06921045 58.56233409 103.05665736 62.09791755 103.04394531 65.63354492 C103.03893075 68.0287263 103.03436777 70.42390867 103.03027344 72.8190918 C103.01923992 78.69476439 103.00249847 84.57040015 102.98144531 90.44604492 C102.38976562 90.31327148 101.79808594 90.18049805 101.18847656 90.04370117 C100.39828125 89.86709961 99.60808594 89.69049805 98.79394531 89.50854492 C97.62798828 89.24750977 97.62798828 89.24750977 96.43847656 88.98120117 C93.95880863 88.44111452 91.46996639 87.94374914 88.98144531 87.44604492 C87.99144531 82.00104492 87.99144531 82.00104492 86.98144531 76.44604492 C85.35651897 76.14137123 83.73155681 75.83688765 82.10644531 75.53320312 C80.66835277 75.26273466 79.23086365 74.9890412 77.79394531 74.71240234 C74.17606749 74.02031048 70.56733471 73.36980888 66.91894531 72.86010742 C55.34791729 71.09231147 43.63707073 67.28177257 35.04394531 58.94604492 C31.52313299 56.07191241 29.63185123 55.41873961 25.16503906 55.73510742 C21.63673402 56.8838579 20.04938157 59.29174731 17.83300781 62.16088867 C8.22756576 74.0157064 -7.13188798 80.70238516 -22.01855469 82.44604492 C-28.6547597 82.80614982 -35.3235031 82.48408292 -41.95947266 82.23364258 C-44.200525 82.1553173 -46.44067534 82.10767572 -48.68261719 82.06323242 C-49.99697754 82.0179541 -51.31133789 81.97267578 -52.66552734 81.92602539 C-56.96677704 82.59310431 -57.44724711 84.09586328 -60.01855469 87.44604492 C-63.25292969 88.37182617 -63.25292969 88.37182617 -66.76855469 88.75854492 C-67.93902344 88.89905273 -69.10949219 89.03956055 -70.31542969 89.18432617 C-71.20746094 89.27069336 -72.09949219 89.35706055 -73.01855469 89.44604492 C-74.05856961 53.06792306 -74.05856961 53.06792306 -68.01855469 40.44604492 C-67.33212891 38.94557617 -67.33212891 38.94557617 -66.63183594 37.41479492 C-58.24497882 20.68703607 -44.1948584 8.73665604 -26.59472656 2.60107422 C-17.7918881 0.0053457 -9.0980587 -0.04547313 0 0 Z " fill="#744D33" transform="translate(135.0185546875,66.553955078125)"/>
<path d="M0 0 C8.80075092 6.24377599 15.00076959 15.55879725 16.98828125 26.2890625 C17.14876953 27.94808594 17.14876953 27.94808594 17.3125 29.640625 C17.39113281 30.43726563 17.46976562 31.23390625 17.55078125 32.0546875 C17.91401511 42.87523304 14.3512376 53.40015171 7.3125 61.640625 C-2.00249212 71.31853889 -11.54538483 75.57301974 -24.9375 76.078125 C-36.85104822 75.90031085 -46.06610688 70.92956324 -54.5546875 62.8671875 C-63.44206256 53.52209355 -66.08310546 42.85250603 -65.96484375 30.27734375 C-65.12477749 19.26182702 -59.36043292 9.90014573 -51.5 2.390625 C-36.37259738 -10.4548474 -16.34672912 -10.52320687 0 0 Z " fill="#F0C34A" transform="translate(292.6875,319.359375)"/>
<path d="M0 0 C4.33318223 0.06856301 4.33318223 0.06856301 7 2.375 C12.6875 12.48611111 12.6875 12.48611111 12.6875 15.375 C13.64011719 15.37757813 14.59273438 15.38015625 15.57421875 15.3828125 C25.45160045 15.68735664 25.45160045 15.68735664 28.765625 17.53125 C31.10099319 20.05452138 31.68236143 22.32960929 32.0625 25.6875 C30.53932435 29.77238016 29.34027252 30.61858071 26.0625 33.3125 C22.63213114 36.43052759 21.73122704 37.62422899 21.45703125 42.33203125 C21.61090361 44.48550689 21.86642023 46.57421944 22.22607422 48.70288086 C22.81168434 52.39926279 22.89934861 54.02223423 20.9375 57.2890625 C17.76508798 60.23015281 16.00884973 60.5166836 11.6875 60.375 C9.48046875 59.2734375 9.48046875 59.2734375 7.1875 57.875 C4.00340548 55.93755944 2.91490684 55.37892081 -0.9375 55.3125 C-3.72659325 56.19054788 -5.41308786 56.98037231 -7.8125 58.5 C-11.3125 60.375 -11.3125 60.375 -15 60.4375 C-19.07324554 59.13098728 -20.30620994 58.14682531 -22.3125 54.375 C-22.60601381 50.79413156 -22.72726812 47.85297655 -21.7578125 44.3984375 C-21.17191655 42.13597775 -20.89740565 40.69078953 -21.3125 38.375 C-23.42966255 35.86222802 -25.75825928 33.74836406 -28.19140625 31.54296875 C-30.3125 29.375 -30.3125 29.375 -31.625 25.625 C-31.3125 22.375 -31.3125 22.375 -30 19.5625 C-24.96873089 15.46728095 -18.62406803 15.25080099 -12.3125 15.375 C-12.085625 14.55 -11.85875 13.725 -11.625 12.875 C-6.90709459 0.29391892 -6.90709459 0.29391892 0 0 Z " fill="#060502" transform="translate(268.3125,321.625)"/>
<path d="M0 0 C4.3510757 2.21658574 7.44162365 4.8307941 10 9 C11.52891227 15.21757655 10.87964291 19.32123739 8 25 C6.2580449 27.36067721 4.26954644 29.36524914 2.16015625 31.3984375 C1.3151078 32.23998886 1.3151078 32.23998886 0.45298767 33.09854126 C-0.73047089 34.27232326 -1.91990282 35.44011083 -3.11499023 36.60205078 C-4.94139041 38.37878462 -6.74819341 40.17375064 -8.55273438 41.97265625 C-9.709846 43.11568934 -10.8680133 44.25765493 -12.02734375 45.3984375 C-12.56600571 45.93173676 -13.10466766 46.46503601 -13.65965271 47.01449585 C-18.15661194 51.3706382 -21.10722749 53.28721607 -27.375 53.375 C-28.74785156 53.41753906 -28.74785156 53.41753906 -30.1484375 53.4609375 C-37.23653215 52.31519069 -42.30003479 46.09692403 -47.1875 41.25 C-47.89841797 40.57195312 -48.60933594 39.89390625 -49.34179688 39.1953125 C-54.11866965 34.46787114 -57.78108993 29.97813324 -58.09033203 22.94580078 C-57.72753866 18.03012451 -56.18059868 14.69637143 -53 11 C-48.22128939 7.66601586 -43.64886223 7.24817301 -38 8 C-33.68208113 9.66073803 -30.5660599 12.10407216 -27 15 C-26.20335937 14.16855469 -25.40671875 13.33710938 -24.5859375 12.48046875 C-23.51603597 11.38241192 -22.4457003 10.28477797 -21.375 9.1875 C-20.85292969 8.64029297 -20.33085937 8.09308594 -19.79296875 7.52929688 C-13.99441403 1.62336151 -8.38130916 -1.35425103 0 0 Z " fill="#000000" transform="translate(387,298)"/>
<path d="M0 0 C3.8666056 2.57773707 6.92171724 5.23544126 8.44921875 9.76171875 C9.41091444 15.02519301 8.19223066 19.16696634 5.8125 23.875 C4.07092642 26.23596132 2.08203875 28.24025655 -0.02734375 30.2734375 C-0.8723922 31.11498886 -0.8723922 31.11498886 -1.73451233 31.97354126 C-2.91797089 33.14732326 -4.10740282 34.31511083 -5.30249023 35.47705078 C-7.12889041 37.25378462 -8.93569341 39.04875064 -10.74023438 40.84765625 C-11.897346 41.99068934 -13.0555133 43.13265493 -14.21484375 44.2734375 C-14.75350571 44.80673676 -15.29216766 45.34003601 -15.84715271 45.88949585 C-20.34411194 50.2456382 -23.29472749 52.16221607 -29.5625 52.25 C-30.93535156 52.29253906 -30.93535156 52.29253906 -32.3359375 52.3359375 C-39.42403215 51.19019069 -44.48753479 44.97192403 -49.375 40.125 C-50.08591797 39.44695312 -50.79683594 38.76890625 -51.52929688 38.0703125 C-56.30616965 33.34287114 -59.96858993 28.85313324 -60.27783203 21.82080078 C-59.91503866 16.90512451 -58.36809868 13.57137143 -55.1875 9.875 C-50.40878939 6.54101586 -45.83636223 6.12317301 -40.1875 6.875 C-35.86958113 8.53573803 -32.7535599 10.97907216 -29.1875 13.875 C-28.39085937 13.04355469 -27.59421875 12.21210938 -26.7734375 11.35546875 C-25.70353597 10.25741192 -24.6332003 9.15977797 -23.5625 8.0625 C-23.04042969 7.51529297 -22.51835937 6.96808594 -21.98046875 6.40429688 C-15.46224136 -0.23463843 -9.0239449 -3.18492173 0 0 Z " fill="#000000" transform="translate(389.1875,225.125)"/>
<path d="M0 0 C3.8666056 2.57773707 6.92171724 5.23544126 8.44921875 9.76171875 C9.41091444 15.02519301 8.19223066 19.16696634 5.8125 23.875 C4.07092642 26.23596132 2.08203875 28.24025655 -0.02734375 30.2734375 C-0.8723922 31.11498886 -0.8723922 31.11498886 -1.73451233 31.97354126 C-2.91797089 33.14732326 -4.10740282 34.31511083 -5.30249023 35.47705078 C-7.12889041 37.25378462 -8.93569341 39.04875064 -10.74023438 40.84765625 C-11.897346 41.99068934 -13.0555133 43.13265493 -14.21484375 44.2734375 C-14.75350571 44.80673676 -15.29216766 45.34003601 -15.84715271 45.88949585 C-20.34411194 50.2456382 -23.29472749 52.16221607 -29.5625 52.25 C-30.93535156 52.29253906 -30.93535156 52.29253906 -32.3359375 52.3359375 C-39.42403215 51.19019069 -44.48753479 44.97192403 -49.375 40.125 C-50.08591797 39.44695312 -50.79683594 38.76890625 -51.52929688 38.0703125 C-56.30616965 33.34287114 -59.96858993 28.85313324 -60.27783203 21.82080078 C-59.91503866 16.90512451 -58.36809868 13.57137143 -55.1875 9.875 C-50.40878939 6.54101586 -45.83636223 6.12317301 -40.1875 6.875 C-35.86958113 8.53573803 -32.7535599 10.97907216 -29.1875 13.875 C-28.39085937 13.04355469 -27.59421875 12.21210938 -26.7734375 11.35546875 C-25.70353597 10.25741192 -24.6332003 9.15977797 -23.5625 8.0625 C-23.04042969 7.51529297 -22.51835937 6.96808594 -21.98046875 6.40429688 C-15.46224136 -0.23463843 -9.0239449 -3.18492173 0 0 Z " fill="#000000" transform="translate(389.1875,151.125)"/>
<path d="M0 0 C3.8666056 2.57773707 6.92171724 5.23544126 8.44921875 9.76171875 C9.41091444 15.02519301 8.19223066 19.16696634 5.8125 23.875 C4.07092642 26.23596132 2.08203875 28.24025655 -0.02734375 30.2734375 C-0.8723922 31.11498886 -0.8723922 31.11498886 -1.73451233 31.97354126 C-2.91797089 33.14732326 -4.10740282 34.31511083 -5.30249023 35.47705078 C-7.12889041 37.25378462 -8.93569341 39.04875064 -10.74023438 40.84765625 C-11.897346 41.99068934 -13.0555133 43.13265493 -14.21484375 44.2734375 C-14.75350571 44.80673676 -15.29216766 45.34003601 -15.84715271 45.88949585 C-20.34411194 50.2456382 -23.29472749 52.16221607 -29.5625 52.25 C-30.93535156 52.29253906 -30.93535156 52.29253906 -32.3359375 52.3359375 C-39.42403215 51.19019069 -44.48753479 44.97192403 -49.375 40.125 C-50.08591797 39.44695312 -50.79683594 38.76890625 -51.52929688 38.0703125 C-56.30616965 33.34287114 -59.96858993 28.85313324 -60.27783203 21.82080078 C-59.91503866 16.90512451 -58.36809868 13.57137143 -55.1875 9.875 C-50.40878939 6.54101586 -45.83636223 6.12317301 -40.1875 6.875 C-35.86958113 8.53573803 -32.7535599 10.97907216 -29.1875 13.875 C-28.39085937 13.04355469 -27.59421875 12.21210937 -26.7734375 11.35546875 C-25.70353597 10.25741192 -24.6332003 9.15977797 -23.5625 8.0625 C-23.04042969 7.51529297 -22.51835937 6.96808594 -21.98046875 6.40429688 C-15.46224136 -0.23463843 -9.0239449 -3.18492173 0 0 Z " fill="#000000" transform="translate(389.1875,77.125)"/>
<path d="M0 0 C1.10214844 0.28875 2.20429687 0.5775 3.33984375 0.875 C17.67752458 4.45583459 30.74150465 5.66777004 45.16796875 1.75390625 C48.09701454 0.97417406 51.0052529 0.45697622 54 0 C54.36590746 1.72672034 54.71722195 3.45653655 55.0625 5.1875 C55.35833984 6.63189453 55.35833984 6.63189453 55.66015625 8.10546875 C56.0261729 11.22292092 55.93402043 13.00771109 55 16 C52.8828125 18.55541992 52.8828125 18.55541992 50.125 21.23046875 C49.64047363 21.70696365 49.15594727 22.18345856 48.65673828 22.6743927 C47.11369439 24.18853558 45.55761702 25.68836582 44 27.1875 C42.44509035 28.69988508 40.89302978 30.21508951 39.34326172 31.73274231 C37.93972037 33.10470456 36.52862804 34.46892926 35.1171875 35.83276367 C32.96539736 37.81493458 32.96539736 37.81493458 32 40 C28.36384148 40.71486645 26.54240051 40.89429894 23 40 C18.73529069 37.12547776 15.15074534 33.78127413 11.5300293 30.14282227 C9.81984658 28.44479436 8.05267878 26.82804273 6.27148438 25.20507812 C-1.60855288 17.63900014 -1.60855288 17.63900014 -2.30523682 12.94219971 C-2.26804804 8.45316637 -1.30379798 4.29435893 0 0 Z " fill="#F6CEB2" transform="translate(122,282)"/>
<path d="M0 0 C0.88733826 0.00404846 1.77467651 0.00809692 2.68890381 0.01226807 C4.08903717 0.00701111 4.08903717 0.00701111 5.51745605 0.00164795 C8.61374268 -0.00717989 11.70980222 -0.00131648 14.80609131 0.00543213 C16.95078577 0.00408578 19.09547993 0.00214551 21.24017334 -0.00036621 C25.73938904 -0.0033189 30.23852544 0.00098485 34.73773193 0.01031494 C40.51519075 0.02170952 46.29246377 0.01515083 52.06991577 0.00317001 C56.49987192 -0.00404466 60.92978376 -0.00176246 65.35974121 0.0034256 C67.49047874 0.00476318 69.62122024 0.00311059 71.75195312 -0.00153351 C74.72583732 -0.00659227 77.69941736 0.00110237 80.67327881 0.01226807 C81.56061707 0.0082196 82.44795532 0.00417114 83.36218262 0 C89.45256371 0.04252953 89.45256371 0.04252953 91.68109131 2.27105713 C91.93109131 5.77105713 91.93109131 5.77105713 91.68109131 9.27105713 C89.00983551 11.94231292 86.99448144 11.51674968 83.36218262 11.54211426 C82.47484436 11.5380658 81.5875061 11.53401733 80.67327881 11.52984619 C79.27314545 11.53510315 79.27314545 11.53510315 77.84472656 11.54046631 C74.74843994 11.54929415 71.6523804 11.54343074 68.55609131 11.53668213 C66.41139685 11.53802848 64.26670269 11.53996875 62.12200928 11.54248047 C57.62279358 11.54543316 53.12365718 11.54112941 48.62445068 11.53179932 C42.84699186 11.52040474 37.06971884 11.52696343 31.29226685 11.53894424 C26.8623107 11.54615891 22.43239886 11.54387672 18.00244141 11.53868866 C15.87170388 11.53735107 13.74096238 11.53900366 11.61022949 11.54364777 C8.6363453 11.54870653 5.66276525 11.54101189 2.68890381 11.52984619 C1.80156555 11.53389465 0.91422729 11.53794312 0 11.54211426 C-6.0903811 11.49958472 -6.0903811 11.49958472 -8.31890869 9.27105713 C-8.56890869 5.77105713 -8.56890869 5.77105713 -8.31890869 2.27105713 C-5.6476529 -0.40019867 -3.63229883 0.02536458 0 0 Z " fill="#000000" transform="translate(420.31890869140625,307.72894287109375)"/>
<path d="M0 0 C0.88733826 0.00404846 1.77467651 0.00809692 2.68890381 0.01226807 C4.08903717 0.00701111 4.08903717 0.00701111 5.51745605 0.00164795 C8.61374268 -0.00717989 11.70980222 -0.00131648 14.80609131 0.00543213 C16.95078577 0.00408578 19.09547993 0.00214551 21.24017334 -0.00036621 C25.73938904 -0.0033189 30.23852544 0.00098485 34.73773193 0.01031494 C40.51519075 0.02170952 46.29246377 0.01515083 52.06991577 0.00317001 C56.49987192 -0.00404466 60.92978376 -0.00176246 65.35974121 0.0034256 C67.49047874 0.00476318 69.62122024 0.00311059 71.75195312 -0.00153351 C74.72583732 -0.00659227 77.69941736 0.00110237 80.67327881 0.01226807 C81.56061707 0.0082196 82.44795532 0.00417114 83.36218262 0 C89.45256371 0.04252953 89.45256371 0.04252953 91.68109131 2.27105713 C91.93109131 5.77105713 91.93109131 5.77105713 91.68109131 9.27105713 C89.00983551 11.94231292 86.99448144 11.51674968 83.36218262 11.54211426 C82.47484436 11.5380658 81.5875061 11.53401733 80.67327881 11.52984619 C79.27314545 11.53510315 79.27314545 11.53510315 77.84472656 11.54046631 C74.74843994 11.54929415 71.6523804 11.54343074 68.55609131 11.53668213 C66.41139685 11.53802848 64.26670269 11.53996875 62.12200928 11.54248047 C57.62279358 11.54543316 53.12365718 11.54112941 48.62445068 11.53179932 C42.84699186 11.52040474 37.06971884 11.52696343 31.29226685 11.53894424 C26.8623107 11.54615891 22.43239886 11.54387672 18.00244141 11.53868866 C15.87170388 11.53735107 13.74096238 11.53900366 11.61022949 11.54364777 C8.6363453 11.54870653 5.66276525 11.54101189 2.68890381 11.52984619 C1.80156555 11.53389465 0.91422729 11.53794312 0 11.54211426 C-6.0903811 11.49958472 -6.0903811 11.49958472 -8.31890869 9.27105713 C-8.56890869 5.77105713 -8.56890869 5.77105713 -8.31890869 2.27105713 C-5.6476529 -0.40019867 -3.63229883 0.02536458 0 0 Z " fill="#000000" transform="translate(420.31890869140625,233.72894287109375)"/>
<path d="M0 0 C0.88733826 0.00404846 1.77467651 0.00809692 2.68890381 0.01226807 C4.08903717 0.00701111 4.08903717 0.00701111 5.51745605 0.00164795 C8.61374268 -0.00717989 11.70980222 -0.00131648 14.80609131 0.00543213 C16.95078577 0.00408578 19.09547993 0.00214551 21.24017334 -0.00036621 C25.73938904 -0.0033189 30.23852544 0.00098485 34.73773193 0.01031494 C40.51519075 0.02170952 46.29246377 0.01515083 52.06991577 0.00317001 C56.49987192 -0.00404466 60.92978376 -0.00176246 65.35974121 0.0034256 C67.49047874 0.00476318 69.62122024 0.00311059 71.75195312 -0.00153351 C74.72583732 -0.00659227 77.69941736 0.00110237 80.67327881 0.01226807 C81.56061707 0.0082196 82.44795532 0.00417114 83.36218262 0 C89.45256371 0.04252953 89.45256371 0.04252953 91.68109131 2.27105713 C91.93109131 5.77105713 91.93109131 5.77105713 91.68109131 9.27105713 C89.00983551 11.94231292 86.99448144 11.51674968 83.36218262 11.54211426 C82.47484436 11.5380658 81.5875061 11.53401733 80.67327881 11.52984619 C79.27314545 11.53510315 79.27314545 11.53510315 77.84472656 11.54046631 C74.74843994 11.54929415 71.6523804 11.54343074 68.55609131 11.53668213 C66.41139685 11.53802848 64.26670269 11.53996875 62.12200928 11.54248047 C57.62279358 11.54543316 53.12365718 11.54112941 48.62445068 11.53179932 C42.84699186 11.52040474 37.06971884 11.52696343 31.29226685 11.53894424 C26.8623107 11.54615891 22.43239886 11.54387672 18.00244141 11.53868866 C15.87170388 11.53735107 13.74096238 11.53900366 11.61022949 11.54364777 C8.6363453 11.54870653 5.66276525 11.54101189 2.68890381 11.52984619 C1.80156555 11.53389465 0.91422729 11.53794312 0 11.54211426 C-6.0903811 11.49958472 -6.0903811 11.49958472 -8.31890869 9.27105713 C-8.56890869 5.77105713 -8.56890869 5.77105713 -8.31890869 2.27105713 C-5.6476529 -0.40019867 -3.63229883 0.02536458 0 0 Z " fill="#000000" transform="translate(420.31890869140625,159.72894287109375)"/>
<path d="M0 0 C0.91245483 -0.00350464 1.82490967 -0.00700928 2.76501465 -0.01062012 C5.78612845 -0.0194345 8.80700875 -0.01358927 11.828125 -0.00683594 C13.9241541 -0.00818267 16.0201829 -0.01012327 18.11621094 -0.01263428 C22.51109793 -0.01558514 26.90590369 -0.01128906 31.30078125 -0.00195312 C36.94023098 0.00944135 42.57949036 0.00288168 48.21893311 -0.00909805 C52.54770345 -0.01631763 56.8764285 -0.01402826 61.2052002 -0.00884247 C63.28487165 -0.00750625 65.36454718 -0.00915273 67.44421387 -0.01380157 C70.34833706 -0.01886836 73.25214997 -0.01115433 76.15625 0 C77.01972046 -0.00404846 77.88319092 -0.00809692 78.77282715 -0.01226807 C84.73532887 0.03025831 84.73532887 0.03025831 88.078125 2.25878906 C88.390625 5.75878906 88.390625 5.75878906 88.078125 9.25878906 C85.4068692 11.93004486 83.39151514 11.50448161 79.75921631 11.52984619 C78.87187805 11.52579773 77.98453979 11.52174927 77.0703125 11.51757812 C75.67017914 11.52283508 75.67017914 11.52283508 74.24176025 11.52819824 C71.14547363 11.53702609 68.04941409 11.53116267 64.953125 11.52441406 C62.80843054 11.52576041 60.66373638 11.52770068 58.51904297 11.5302124 C54.01982727 11.53316509 49.52069087 11.52886134 45.02148438 11.51953125 C39.24402555 11.50813667 33.46675253 11.51469536 27.68930054 11.52667618 C23.25934439 11.53389085 18.82943255 11.53160865 14.3994751 11.52642059 C12.26873757 11.52508301 10.13799607 11.5267356 8.00726318 11.5313797 C5.03337899 11.53643846 2.05979895 11.52874382 -0.9140625 11.51757812 C-1.80140076 11.52162659 -2.68873901 11.52567505 -3.60296631 11.52984619 C-9.6933474 11.48731666 -9.6933474 11.48731666 -11.921875 9.25878906 C-12.234375 5.75878906 -12.234375 5.75878906 -11.921875 2.25878906 C-7.97164703 -0.37469625 -4.58391439 -0.02149211 0 0 Z " fill="#000000" transform="translate(423.921875,85.7412109375)"/>
<path d="M0 0 C12.21 0 24.42 0 37 0 C37 8.91 37 17.82 37 27 C32.06987063 27.06886368 27.14140874 27.12859649 22.21118164 27.16479492 C20.5340408 27.17988384 18.85693943 27.20035748 17.17993164 27.22631836 C14.76959496 27.26269811 12.35977981 27.27972486 9.94921875 27.29296875 C9.19912033 27.30845261 8.44902191 27.32393646 7.67619324 27.33988953 C2.50732853 27.34156152 2.50732853 27.34156152 0.02368164 25.66943359 C-1.62469783 22.9812345 -1.31825731 20.54662024 -1.25 17.4375 C-1.23453125 16.28121094 -1.2190625 15.12492187 -1.203125 13.93359375 C-0.96271612 9.27798332 -0.46386778 4.63867779 0 0 Z " fill="#F5CCB1" transform="translate(11,418)"/>
<path d="M0 0 C3.63 1.65 7.26 3.3 11 5 C14.29375292 5.92456824 14.29375292 5.92456824 17.125 6.25 C21.93069307 6.93069307 21.93069307 6.93069307 23 8 C25.85612266 31.37006015 25.85612266 31.37006015 21.86474609 39.23779297 C18.60476234 42.98847964 14.41951887 44.88179835 10 47 C8.21512902 48.32942114 6.45949749 49.69995848 4.75 51.125 C1.11981567 54 1.11981567 54 0 54 C0 36.18 0 18.36 0 0 Z " fill="#F6627B" transform="translate(241,397)"/>
<path d="M0 0 C0 15.84 0 31.68 0 48 C-11.98376531 46.66847052 -11.98376531 46.66847052 -17 42 C-22.37799521 34.6695587 -25.12383094 28.13274112 -24 19 C-21.49036977 11.31355406 -17.19671753 5.92037759 -10.171875 1.97265625 C-6.45164354 0.2176775 -4.23177207 0 0 0 Z " fill="#F0C9AE" transform="translate(75,164)"/>
<path d="M0 0 C0 17.49 0 34.98 0 53 C-4.99818785 49.25135912 -9.98700329 45.49781181 -14.9375 41.6875 C-15.51306641 41.24599609 -16.08863281 40.80449219 -16.68164062 40.34960938 C-20.87790976 37.12209024 -20.87790976 37.12209024 -22 36 C-22.08783542 33.78144736 -22.10694609 31.56011504 -22.09765625 29.33984375 C-22.0962413 28.67537735 -22.09482635 28.01091095 -22.09336853 27.3263092 C-22.08775518 25.19666101 -22.07520054 23.06711661 -22.0625 20.9375 C-22.05748671 19.49674631 -22.05292351 18.05599097 -22.04882812 16.61523438 C-22.03778145 13.07678898 -22.02050792 9.53840461 -22 6 C-21.34193359 5.88027832 -20.68386719 5.76055664 -20.00585938 5.63720703 C-15.29703074 4.74501701 -10.91089718 3.80834779 -6.5 1.875 C-2.17518248 0 -2.17518248 0 0 0 Z " fill="#FA647D" transform="translate(296,398)"/>
<path d="M0 0 C7.97167051 0 11.20014256 1.31757744 16.76953125 6.71484375 C21.99787472 12.52835461 23.41737142 17.43597878 23.25 25.21875 C22.65554727 31.83203667 20.05932128 37.56528629 15 42 C9.64947747 45.74833279 6.73629923 47 0 47 C0 31.49 0 15.98 0 0 Z " fill="#F6CEB2" transform="translate(224,165)"/>
<path d="M0 0 C0.69933655 -0.00350464 1.3986731 -0.00700928 2.11920166 -0.01062012 C4.43633888 -0.01943969 6.75317205 -0.01358763 9.0703125 -0.00683594 C10.67692117 -0.00818253 12.28352945 -0.01012301 13.89013672 -0.01263428 C17.25947952 -0.01558584 20.62871637 -0.01128691 23.99804688 -0.00195312 C28.32270744 0.00944148 32.64711979 0.00288218 36.97177124 -0.00909805 C40.2899768 -0.01631581 43.60812325 -0.01402912 46.92633057 -0.00884247 C48.5211795 -0.00750574 50.11603375 -0.00915451 51.71087646 -0.01380157 C53.93760448 -0.0188655 56.16392726 -0.01115882 58.390625 0 C60.29352295 0.00238678 60.29352295 0.00238678 62.23486328 0.00482178 C65.1953125 0.25878906 65.1953125 0.25878906 67.1953125 2.25878906 C67.4453125 5.75878906 67.4453125 5.75878906 67.1953125 9.25878906 C64.33846644 12.11563512 62.39176329 11.51255955 58.390625 11.51757812 C57.69128845 11.52108276 56.9919519 11.5245874 56.27142334 11.52819824 C53.95428612 11.53701782 51.63745295 11.53116576 49.3203125 11.52441406 C47.71370383 11.52576065 46.10709555 11.52770113 44.50048828 11.5302124 C41.13114548 11.53316397 37.76190863 11.52886503 34.39257812 11.51953125 C30.06791756 11.50813664 25.74350521 11.51469595 21.41885376 11.52667618 C18.1006482 11.53389394 14.78250175 11.53160725 11.46429443 11.52642059 C9.8694455 11.52508386 8.27459125 11.52673264 6.67974854 11.5313797 C4.45302052 11.53644362 2.22669774 11.52873695 0 11.51757812 C-1.90289795 11.51519135 -1.90289795 11.51519135 -3.84423828 11.51275635 C-6.8046875 11.25878906 -6.8046875 11.25878906 -8.8046875 9.25878906 C-9.0546875 5.75878906 -9.0546875 5.75878906 -8.8046875 2.25878906 C-5.94784144 -0.598057 -4.00113829 0.00501857 0 0 Z " fill="#000000" transform="translate(420.8046875,327.7412109375)"/>
<path d="M0 0 C0.69933655 -0.00350464 1.3986731 -0.00700928 2.11920166 -0.01062012 C4.43633888 -0.01943969 6.75317205 -0.01358763 9.0703125 -0.00683594 C10.67692117 -0.00818253 12.28352945 -0.01012301 13.89013672 -0.01263428 C17.25947952 -0.01558584 20.62871637 -0.01128691 23.99804688 -0.00195312 C28.32270744 0.00944148 32.64711979 0.00288218 36.97177124 -0.00909805 C40.2899768 -0.01631581 43.60812325 -0.01402912 46.92633057 -0.00884247 C48.5211795 -0.00750574 50.11603375 -0.00915451 51.71087646 -0.01380157 C53.93760448 -0.0188655 56.16392726 -0.01115882 58.390625 0 C60.29352295 0.00238678 60.29352295 0.00238678 62.23486328 0.00482178 C65.1953125 0.25878906 65.1953125 0.25878906 67.1953125 2.25878906 C67.4453125 5.75878906 67.4453125 5.75878906 67.1953125 9.25878906 C64.33846644 12.11563512 62.39176329 11.51255955 58.390625 11.51757812 C57.69128845 11.52108276 56.9919519 11.5245874 56.27142334 11.52819824 C53.95428612 11.53701782 51.63745295 11.53116576 49.3203125 11.52441406 C47.71370383 11.52576065 46.10709555 11.52770113 44.50048828 11.5302124 C41.13114548 11.53316397 37.76190863 11.52886503 34.39257812 11.51953125 C30.06791756 11.50813664 25.74350521 11.51469595 21.41885376 11.52667618 C18.1006482 11.53389394 14.78250175 11.53160725 11.46429443 11.52642059 C9.8694455 11.52508386 8.27459125 11.52673264 6.67974854 11.5313797 C4.45302052 11.53644362 2.22669774 11.52873695 0 11.51757812 C-1.90289795 11.51519135 -1.90289795 11.51519135 -3.84423828 11.51275635 C-6.8046875 11.25878906 -6.8046875 11.25878906 -8.8046875 9.25878906 C-9.0546875 5.75878906 -9.0546875 5.75878906 -8.8046875 2.25878906 C-5.94784144 -0.598057 -4.00113829 0.00501857 0 0 Z " fill="#000000" transform="translate(420.8046875,253.7412109375)"/>
<path d="M0 0 C0.69933655 -0.00350464 1.3986731 -0.00700928 2.11920166 -0.01062012 C4.43633888 -0.01943969 6.75317205 -0.01358763 9.0703125 -0.00683594 C10.67692117 -0.00818253 12.28352945 -0.01012301 13.89013672 -0.01263428 C17.25947952 -0.01558584 20.62871637 -0.01128691 23.99804688 -0.00195312 C28.32270744 0.00944148 32.64711979 0.00288218 36.97177124 -0.00909805 C40.2899768 -0.01631581 43.60812325 -0.01402912 46.92633057 -0.00884247 C48.5211795 -0.00750574 50.11603375 -0.00915451 51.71087646 -0.01380157 C53.93760448 -0.0188655 56.16392726 -0.01115882 58.390625 0 C60.29352295 0.00238678 60.29352295 0.00238678 62.23486328 0.00482178 C65.1953125 0.25878906 65.1953125 0.25878906 67.1953125 2.25878906 C67.4453125 5.75878906 67.4453125 5.75878906 67.1953125 9.25878906 C64.33846644 12.11563512 62.39176329 11.51255955 58.390625 11.51757812 C57.69128845 11.52108276 56.9919519 11.5245874 56.27142334 11.52819824 C53.95428612 11.53701782 51.63745295 11.53116576 49.3203125 11.52441406 C47.71370383 11.52576065 46.10709555 11.52770113 44.50048828 11.5302124 C41.13114548 11.53316397 37.76190863 11.52886503 34.39257812 11.51953125 C30.06791756 11.50813664 25.74350521 11.51469595 21.41885376 11.52667618 C18.1006482 11.53389394 14.78250175 11.53160725 11.46429443 11.52642059 C9.8694455 11.52508386 8.27459125 11.52673264 6.67974854 11.5313797 C4.45302052 11.53644362 2.22669774 11.52873695 0 11.51757812 C-1.90289795 11.51519135 -1.90289795 11.51519135 -3.84423828 11.51275635 C-6.8046875 11.25878906 -6.8046875 11.25878906 -8.8046875 9.25878906 C-9.0546875 5.75878906 -9.0546875 5.75878906 -8.8046875 2.25878906 C-5.94784144 -0.598057 -4.00113829 0.00501857 0 0 Z " fill="#000000" transform="translate(420.8046875,179.7412109375)"/>
<path d="M0 0 C1.01755371 -0.00525696 1.01755371 -0.00525696 2.05566406 -0.01062012 C4.29763019 -0.01942133 6.53928067 -0.01359412 8.78125 -0.00683594 C10.33919332 -0.00818305 11.89713624 -0.01012398 13.45507812 -0.01263428 C16.7200928 -0.01558335 19.98499804 -0.0112949 23.25 -0.00195312 C27.43665274 0.00944134 31.62304905 0.00288071 35.80969238 -0.00909805 C39.02671239 -0.01632252 42.24367153 -0.01402603 45.46069336 -0.00884247 C47.00447622 -0.0075076 48.54826459 -0.00914802 50.09204102 -0.01380157 C52.24900975 -0.0188765 54.40556229 -0.01114332 56.5625 0 C58.40424805 0.00238678 58.40424805 0.00238678 60.28320312 0.00482178 C63.28125 0.25878906 63.28125 0.25878906 66.28125 2.25878906 C66.59375 5.75878906 66.59375 5.75878906 66.28125 9.25878906 C63.42440394 12.11563512 61.47770079 11.51255955 57.4765625 11.51757812 C56.77722595 11.52108276 56.0778894 11.5245874 55.35736084 11.52819824 C53.04022362 11.53701782 50.72339045 11.53116576 48.40625 11.52441406 C46.79964133 11.52576065 45.19303305 11.52770113 43.58642578 11.5302124 C40.21708298 11.53316397 36.84784613 11.52886503 33.47851562 11.51953125 C29.15385506 11.50813664 24.82944271 11.51469595 20.50479126 11.52667618 C17.1865857 11.53389394 13.86843925 11.53160725 10.55023193 11.52642059 C8.955383 11.52508386 7.36052875 11.52673264 5.76568604 11.5313797 C3.53895802 11.53644362 1.31263524 11.52873695 -0.9140625 11.51757812 C-2.81696045 11.51519135 -2.81696045 11.51519135 -4.75830078 11.51275635 C-7.71875 11.25878906 -7.71875 11.25878906 -9.71875 9.25878906 C-10.03125 5.75878906 -10.03125 5.75878906 -9.71875 2.25878906 C-6.07231702 -0.17216626 -4.34413426 0.0056297 0 0 Z " fill="#000000" transform="translate(421.71875,105.7412109375)"/>
<path d="M0 0 C2.84405082 1.53465152 4.81625201 3.71329889 7.04711914 6.03222656 C7.93915039 6.95132812 8.83118164 7.87042969 9.75024414 8.81738281 C10.42571289 9.52765625 11.10118164 10.23792969 11.79711914 10.96972656 C10.1755589 15.07081543 7.22034884 17.80120823 4.13305664 20.82910156 C3.58098541 21.3783429 3.02891418 21.92758423 2.46011353 22.49346924 C0.70210099 24.24031949 -1.06274976 25.98007258 -2.82788086 27.71972656 C-4.02365166 28.90546247 -5.21896951 30.09165536 -6.41381836 31.27832031 C-9.33828339 34.18077742 -12.2688996 37.07689067 -15.20288086 39.96972656 C-18.74311732 38.29840237 -21.1963534 36.33633323 -24.01538086 33.59472656 C-24.82620117 32.82386719 -25.63702148 32.05300781 -26.47241211 31.25878906 C-28.20288086 28.96972656 -28.20288086 28.96972656 -28.15014648 27.19506836 C-26.73389098 23.86796297 -24.29581923 21.59487368 -21.77709961 19.07519531 C-21.23310013 18.52358231 -20.68910065 17.9719693 -20.12861633 17.40364075 C-18.97829613 16.24253188 -17.82399249 15.08535776 -16.66601562 13.93188477 C-14.8930648 12.15990903 -13.14252177 10.36767008 -11.39233398 8.57324219 C-10.27189181 7.44759513 -9.1501886 6.32320158 -8.02709961 5.20019531 C-7.50403732 4.66073776 -6.98097504 4.12128021 -6.44206238 3.56547546 C-2.76976437 -0.03806392 -2.76976437 -0.03806392 0 0 Z " fill="#97DFF3" transform="translate(190.202880859375,300.0302734375)"/>
<path d="M0 0 C4.10108886 1.62156024 6.83148167 4.5767703 9.859375 7.6640625 C10.40861633 8.21613373 10.95785767 8.76820496 11.52374268 9.33700562 C13.27059293 11.09501815 15.01034601 12.8598689 16.75 14.625 C17.93573591 15.8207708 19.1219288 17.01608865 20.30859375 18.2109375 C23.21105085 21.13540253 26.1071641 24.06601874 29 27 C25.16171005 31.53451965 21.25222428 35.84901916 17 40 C12.89891114 38.37843976 10.16851833 35.4232297 7.140625 32.3359375 C6.59138367 31.78386627 6.04214233 31.23179504 5.47625732 30.66299438 C3.72940707 28.90498185 1.98965399 27.1401311 0.25 25.375 C-0.93573591 24.1792292 -2.1219288 22.98391135 -3.30859375 21.7890625 C-6.21105085 18.86459747 -9.1071641 15.93398126 -12 13 C-8.16171005 8.46548035 -4.25222428 4.15098084 0 0 Z " fill="#99E2F6" transform="translate(108,300)"/>
<path d="M0 0 C1.9375 1 1.9375 1 3 3 C3.23595284 5.71882023 3.13477523 8.25957022 3 11 C4.258125 10.938125 5.51625 10.87625 6.8125 10.8125 C9.37705844 10.83065617 10.71463773 10.8484013 13 12.0625 C14.58433618 15.13215135 14.36248449 17.61681143 14 21 C13 22.9375 13 22.9375 11 24 C8.28117977 24.23595284 5.74042978 24.13477523 3 24 C3.061875 25.258125 3.12375 26.51625 3.1875 27.8125 C3.16934383 30.37705844 3.1515987 31.71463773 1.9375 34 C-1.13215135 35.58433618 -3.61681143 35.36248449 -7 35 C-8.9375 34 -8.9375 34 -10 32 C-10.23595284 29.28117977 -10.13477523 26.74042978 -10 24 C-11.258125 24.061875 -12.51625 24.12375 -13.8125 24.1875 C-16.37705844 24.16934383 -17.71463773 24.1515987 -20 22.9375 C-21.58433618 19.86784865 -21.36248449 17.38318857 -21 14 C-20 12.0625 -20 12.0625 -18 11 C-15.28117977 10.76404716 -12.74042978 10.86522477 -10 11 C-10.061875 9.741875 -10.12375 8.48375 -10.1875 7.1875 C-10.16934383 4.62294156 -10.1515987 3.28536227 -8.9375 1 C-5.86784865 -0.58433618 -3.38318857 -0.36248449 0 0 Z " fill="#70D6F9" transform="translate(390,381)"/>
<path d="M0 0 C2.39396476 2.16953056 3.61517479 4.16843169 5 7.0625 C6.7093444 9.94668791 7.55791167 10.84598615 10.76953125 11.96484375 C13.51923608 12.4484247 16.2157899 12.80495901 19 13 C17.69985834 15.87367759 16.76416912 17.21898581 14.375 19.4375 C10.81330145 23.45877256 11.62539266 28.28860113 11.82421875 33.3671875 C11.88222656 34.23601562 11.94023437 35.10484375 12 36 C11.43152344 35.69964844 10.86304688 35.39929688 10.27734375 35.08984375 C5.07133537 32.52594981 1.80242791 31.38821447 -4 33 C-6.39844266 33.90471707 -8.67539759 34.90886009 -11 36 C-10.91878906 35.154375 -10.83757812 34.30875 -10.75390625 33.4375 C-10.25140438 26.6416069 -10.25140438 26.6416069 -12.55859375 20.42578125 C-14.45180386 18.30814881 -14.45180386 18.30814881 -16.46875 16.48828125 C-16.9740625 15.99714844 -17.479375 15.50601562 -18 15 C-18 14.34 -18 13.68 -18 13 C-16.77023438 12.77957031 -16.77023438 12.77957031 -15.515625 12.5546875 C-8.66453696 11.27211116 -8.66453696 11.27211116 -3.375 7.0625 C-2.92125 6.051875 -2.4675 5.04125 -2 4 C-1.5875 3.21625 -1.175 2.4325 -0.75 1.625 C-0.5025 1.08875 -0.255 0.5525 0 0 Z " fill="#F5D782" transform="translate(268,334)"/>
<path d="M0 0 C0.66 0.66 1.32 1.32 2 2 C1.87200634 7.43065644 -0.20024054 9.83208383 -3.953125 13.58203125 C-4.45036072 14.08167892 -4.94759644 14.5813266 -5.4598999 15.09611511 C-6.50970669 16.14494617 -7.56570286 17.18761447 -8.62744141 18.22436523 C-10.24691392 19.8094794 -11.84096718 21.41726002 -13.43359375 23.02929688 C-14.45950941 24.04831477 -15.48680853 25.06594213 -16.515625 26.08203125 C-17.91216309 27.46225464 -17.91216309 27.46225464 -19.33691406 28.87036133 C-22.06077115 31.04859798 -23.55002811 31.81396485 -27 32 C-28.921875 30.8828125 -28.921875 30.8828125 -30.75 29.125 C-31.42675781 28.47917969 -32.10351562 27.83335937 -32.80078125 27.16796875 C-33.52652344 26.45253906 -34.25226563 25.73710937 -35 25 C-35.81855469 24.25363281 -36.63710938 23.50726563 -37.48046875 22.73828125 C-38.29128906 21.97902344 -39.10210937 21.21976562 -39.9375 20.4375 C-40.68902344 19.73496094 -41.44054687 19.03242188 -42.21484375 18.30859375 C-44.39051687 15.49497709 -44.84983447 13.53131187 -45 10 C-43 8 -43 8 -40.16015625 7.59375 C-36.09429242 8.11643212 -35.07855517 9.43845483 -32.4375 12.5 C-29.62609161 15.9763148 -29.62609161 15.9763148 -25.60449219 17.33959961 C-22.30855988 16.90984316 -21.35217901 15.92233089 -19.08203125 13.53515625 C-18.38529297 12.81779297 -17.68855469 12.10042969 -16.97070312 11.36132812 C-16.25849609 10.60271484 -15.54628906 9.84410156 -14.8125 9.0625 C-13.38344383 7.57236218 -11.95254358 6.08398997 -10.51953125 4.59765625 C-9.57750854 3.60004272 -9.57750854 3.60004272 -8.61645508 2.58227539 C-5.84321782 -0.1323222 -3.7933199 -0.28449899 0 0 Z " fill="#A9D768" transform="translate(385,309)"/>
<path d="M0 0 C0.66 0.66 1.32 1.32 2 2 C1.87200634 7.43065644 -0.20024054 9.83208383 -3.953125 13.58203125 C-4.45036072 14.08167892 -4.94759644 14.5813266 -5.4598999 15.09611511 C-6.50970669 16.14494617 -7.56570286 17.18761447 -8.62744141 18.22436523 C-10.24691392 19.8094794 -11.84096718 21.41726002 -13.43359375 23.02929688 C-14.45950941 24.04831477 -15.48680853 25.06594213 -16.515625 26.08203125 C-17.91216309 27.46225464 -17.91216309 27.46225464 -19.33691406 28.87036133 C-22.06077115 31.04859798 -23.55002811 31.81396485 -27 32 C-28.921875 30.8828125 -28.921875 30.8828125 -30.75 29.125 C-31.42675781 28.47917969 -32.10351562 27.83335937 -32.80078125 27.16796875 C-33.52652344 26.45253906 -34.25226563 25.73710937 -35 25 C-35.81855469 24.25363281 -36.63710938 23.50726563 -37.48046875 22.73828125 C-38.29128906 21.97902344 -39.10210937 21.21976562 -39.9375 20.4375 C-40.68902344 19.73496094 -41.44054687 19.03242188 -42.21484375 18.30859375 C-44.39051687 15.49497709 -44.84983447 13.53131187 -45 10 C-43 8 -43 8 -40.16015625 7.59375 C-36.09429242 8.11643212 -35.07855517 9.43845483 -32.4375 12.5 C-29.62609161 15.9763148 -29.62609161 15.9763148 -25.60449219 17.33959961 C-22.30855988 16.90984316 -21.35217901 15.92233089 -19.08203125 13.53515625 C-18.38529297 12.81779297 -17.68855469 12.10042969 -16.97070312 11.36132812 C-16.25849609 10.60271484 -15.54628906 9.84410156 -14.8125 9.0625 C-13.38344383 7.57236218 -11.95254358 6.08398997 -10.51953125 4.59765625 C-9.57750854 3.60004272 -9.57750854 3.60004272 -8.61645508 2.58227539 C-5.84321782 -0.1323222 -3.7933199 -0.28449899 0 0 Z " fill="#A9D768" transform="translate(385,235)"/>
<path d="M0 0 C0.66 0.66 1.32 1.32 2 2 C1.87200634 7.43065644 -0.20024054 9.83208383 -3.953125 13.58203125 C-4.45036072 14.08167892 -4.94759644 14.5813266 -5.4598999 15.09611511 C-6.50970669 16.14494617 -7.56570286 17.18761447 -8.62744141 18.22436523 C-10.24691392 19.8094794 -11.84096718 21.41726002 -13.43359375 23.02929688 C-14.45950941 24.04831477 -15.48680853 25.06594213 -16.515625 26.08203125 C-17.91216309 27.46225464 -17.91216309 27.46225464 -19.33691406 28.87036133 C-22.06077115 31.04859798 -23.55002811 31.81396485 -27 32 C-28.921875 30.8828125 -28.921875 30.8828125 -30.75 29.125 C-31.42675781 28.47917969 -32.10351562 27.83335937 -32.80078125 27.16796875 C-33.52652344 26.45253906 -34.25226563 25.73710937 -35 25 C-35.81855469 24.25363281 -36.63710938 23.50726563 -37.48046875 22.73828125 C-38.29128906 21.97902344 -39.10210937 21.21976563 -39.9375 20.4375 C-40.68902344 19.73496094 -41.44054687 19.03242188 -42.21484375 18.30859375 C-44.39051687 15.49497709 -44.84983447 13.53131187 -45 10 C-43 8 -43 8 -40.16015625 7.59375 C-36.09429242 8.11643212 -35.07855517 9.43845483 -32.4375 12.5 C-29.62609161 15.9763148 -29.62609161 15.9763148 -25.60449219 17.33959961 C-22.30855988 16.90984316 -21.35217901 15.92233089 -19.08203125 13.53515625 C-18.38529297 12.81779297 -17.68855469 12.10042969 -16.97070312 11.36132812 C-16.25849609 10.60271484 -15.54628906 9.84410156 -14.8125 9.0625 C-13.38344383 7.57236218 -11.95254358 6.08398997 -10.51953125 4.59765625 C-9.57750854 3.60004272 -9.57750854 3.60004272 -8.61645508 2.58227539 C-5.84321782 -0.1323222 -3.7933199 -0.28449899 0 0 Z " fill="#A9D767" transform="translate(385,161)"/>
<path d="M0 0 C0.66 0.66 1.32 1.32 2 2 C1.87200634 7.43065644 -0.20024054 9.83208383 -3.953125 13.58203125 C-4.45036072 14.08167892 -4.94759644 14.5813266 -5.4598999 15.09611511 C-6.50970669 16.14494617 -7.56570286 17.18761447 -8.62744141 18.22436523 C-10.24691392 19.8094794 -11.84096718 21.41726002 -13.43359375 23.02929688 C-14.45950941 24.04831477 -15.48680853 25.06594213 -16.515625 26.08203125 C-17.91216309 27.46225464 -17.91216309 27.46225464 -19.33691406 28.87036133 C-22.06077115 31.04859798 -23.55002811 31.81396485 -27 32 C-28.921875 30.8828125 -28.921875 30.8828125 -30.75 29.125 C-31.42675781 28.47917969 -32.10351562 27.83335938 -32.80078125 27.16796875 C-33.52652344 26.45253906 -34.25226563 25.73710938 -35 25 C-35.81855469 24.25363281 -36.63710938 23.50726563 -37.48046875 22.73828125 C-38.29128906 21.97902344 -39.10210937 21.21976563 -39.9375 20.4375 C-40.68902344 19.73496094 -41.44054687 19.03242187 -42.21484375 18.30859375 C-44.39051687 15.49497709 -44.84983447 13.53131187 -45 10 C-43 8 -43 8 -39.875 7.875 C-35.24260348 8.61811361 -32.90493888 11.84665929 -29.9921875 15.28515625 C-28.13074686 17.20206599 -28.13074686 17.20206599 -25.62036133 17.32373047 C-22.30457641 16.91408444 -21.36286572 15.93356851 -19.08203125 13.53515625 C-18.38529297 12.81779297 -17.68855469 12.10042969 -16.97070312 11.36132812 C-16.25849609 10.60271484 -15.54628906 9.84410156 -14.8125 9.0625 C-13.38344383 7.57236218 -11.95254358 6.08398997 -10.51953125 4.59765625 C-9.57750854 3.60004272 -9.57750854 3.60004272 -8.61645508 2.58227539 C-5.84321782 -0.1323222 -3.7933199 -0.28449899 0 0 Z " fill="#A9D768" transform="translate(385,87)"/>
<path d="M0 0 C2.1328125 1.27734375 2.1328125 1.27734375 4.125 2.9375 C8.78255873 6.77047148 12.43106673 7.3410652 18.359375 7.2890625 C23.07096987 6.7732962 27.25866288 4.83906522 30.53125 1.3828125 C32 0 32 0 35.0625 -0.3125 C38 0 38 0 40 2 C40.41845973 4.99247368 40.42818038 6.42470737 38.6015625 8.87890625 C30.77562331 15.54487422 23.35435642 18.79228852 12.953125 18.37890625 C5.24178737 17.38948859 -0.96673578 14.09871147 -6.62890625 8.8125 C-8 7 -8 7 -8.125 3.625 C-6.36865872 -0.47312965 -4.18424452 -0.39110891 0 0 Z " fill="#080706" transform="translate(135,224)"/>
<path d="M0 0 C2 1 2 1 3.3125 4.1875 C5.85176634 10.29174618 8.81444973 13.69141393 14.8125 16.375 C16.20203426 16.93262713 17.59595695 17.47998406 19 18 C19 18.66 19 19.32 19 20 C18.34773438 20.268125 17.69546875 20.53625 17.0234375 20.8125 C9.29759589 24.27659417 5.14734585 28.31488179 1.625 36 C1.41875 36.66 1.2125 37.32 1 38 C-1.76152272 36.61923864 -2.05813287 34.97816042 -3.3125 32.1875 C-6.23018179 26.23339355 -9.15554176 23.62389763 -15.3125 21.25 C-16.529375 20.8375 -17.74625 20.425 -19 20 C-19 19.34 -19 18.68 -19 18 C-18.40832031 17.75765625 -17.81664063 17.5153125 -17.20703125 17.265625 C-7.83256427 13.28950524 -4.1594508 9.2746903 0 0 Z " fill="#F5C84B" transform="translate(41,249)"/>
<path d="M0 0 C1.79057349 2.19752201 2.97165327 3.9149598 3.875 6.625 C4.79769649 9.20407615 4.79769649 9.20407615 7.375 10.1875 C8.24125 10.455625 9.1075 10.72375 10 11 C11.34050052 11.65213539 12.67661368 12.31379969 14 13 C13 15 13 15 10.1875 16.3125 C6.71385004 18.15149116 5.24659417 19.82378065 3 23 C2.4225 23.763125 1.845 24.52625 1.25 25.3125 C0.8375 25.869375 0.425 26.42625 0 27 C-0.31453125 26.45730469 -0.6290625 25.91460937 -0.953125 25.35546875 C-4.26899563 19.81237177 -7.09108353 16.7434255 -13 14 C-12 12 -12 12 -9.1875 10.6875 C-4.51300872 8.21276932 -2.12070939 4.77159612 0 0 Z " fill="#87D047" transform="translate(282,49)"/>
<path d="M0 0 C3.74785043 2.08213913 4.79482295 3.2947039 6 7.4375 C6 11.4184894 5.5177436 12.96134393 3 16 C0.28562321 18.13272462 -1.04826833 17.99745956 -4.5625 17.8125 C-8 17 -8 17 -9.875 15.9375 C-11.70006784 12.79432761 -12.25113651 9.57869527 -12 6 C-8.74238589 0.72041851 -6.13812058 -0.60177653 0 0 Z " fill="#0A0807" transform="translate(183,183)"/>
<path d="M0 0 C4.25331827 0.86802414 6.18199992 2.40158324 9.0625 5.625 C9.80413232 9.778141 9.51143783 11.79895439 7.5 15.5 C4.24673621 18.33617869 2.36694539 18.77342915 -1.9375 18.625 C-5.21273158 16.77896038 -7.42527812 15.44338767 -8.484375 11.68359375 C-8.75684893 7.6948782 -8.16513916 5.94637293 -5.8125 2.625 C-2.9375 0.625 -2.9375 0.625 0 0 Z " fill="#060504" transform="translate(119.9375,182.375)"/>
<path d="M0 0 C1.9375 1.625 1.9375 1.625 3 4 C2.93439072 7.739729 2.76345433 10.0603639 0.375 13 C-3.11581787 14.46981805 -5.39148956 13.98413921 -9 13 C-11 11.375 -11 11.375 -12 9 C-12 5.4375 -12 5.4375 -11 2 C-7.37154796 -1.31744186 -4.6081237 -1.50264903 0 0 Z " fill="#F5C84C" transform="translate(352,438)"/>
<path d="M0 0 C1.9375 1.625 1.9375 1.625 3 4 C2.93439072 7.739729 2.76345433 10.0603639 0.375 13 C-3.11581787 14.46981805 -5.39148956 13.98413921 -9 13 C-11 11.375 -11 11.375 -12 9 C-12 5.4375 -12 5.4375 -11 2 C-7.37154796 -1.31744186 -4.6081237 -1.50264903 0 0 Z " fill="#FC657D" transform="translate(20,214)"/>
</svg>
